<?xml version="1.0" encoding="UTF-8" standalone="no"?>
<svg width="881px" height="105px" viewBox="0 0 881 105" version="1.1" xmlns="http://www.w3.org/2000/svg" xmlns:xlink="http://www.w3.org/1999/xlink" xmlns:sketch="http://www.bohemiancoding.com/sketch/ns">
    <!-- Generator: Sketch 3.3.2 (12043) - http://www.bohemiancoding.com/sketch -->
    <title>Untitled</title>
    <desc>Created with Sketch.</desc>
    <defs></defs>
    <g id="Page-1" stroke="none" stroke-width="1" fill="none" fill-rule="evenodd" sketch:type="MSPage">
        <g id="Main-Page-Copy" sketch:type="MSArtboardGroup" transform="translate(-200.000000, -20.000000)" fill="#8B0420">
            <g id="Untitled" sketch:type="MSLayerGroup" transform="translate(200.000000, 20.000000)">
                <path d="M4.774902,3.980957 L5.79541,3.980957 L1.57373,13.020508 L0.547852,13.020508 L4.774902,3.980957 Z" id="Shape" sketch:type="MSShapeGroup"></path>
                <path d="M1.57373,16.980957 L5.79541,26.020508 L4.774902,26.020508 L0.547852,16.980957 L1.57373,16.980957 Z" id="Shape" sketch:type="MSShapeGroup"></path>
                <path d="M8.57373,29.980957 L12.79541,39.020508 L11.774902,39.020508 L7.547852,29.980957 L8.57373,29.980957 Z" id="Shape" sketch:type="MSShapeGroup"></path>
                <path d="M15.57373,42.980957 L19.79541,52.020508 L18.774902,52.020508 L14.547852,42.980957 L15.57373,42.980957 Z" id="Shape" sketch:type="MSShapeGroup"></path>
                <path d="M22.57373,55.980957 L26.79541,65.020508 L25.774902,65.020508 L21.547852,55.980957 L22.57373,55.980957 Z" id="Shape" sketch:type="MSShapeGroup"></path>
                <path d="M29.57373,68.980957 L33.79541,78.020508 L32.774902,78.020508 L28.547852,68.980957 L29.57373,68.980957 Z" id="Shape" sketch:type="MSShapeGroup"></path>
                <path d="M795.774902,81.980957 L796.79541,81.980957 L792.57373,91.020508 L791.547852,91.020508 L795.774902,81.980957 Z" id="Shape" sketch:type="MSShapeGroup"></path>
                <path d="M792.57373,94.980957 L796.79541,104.020508 L795.774902,104.020508 L791.547852,94.980957 L792.57373,94.980957 Z" id="Shape" sketch:type="MSShapeGroup"></path>
                <path d="M802.774902,94.980957 L803.79541,94.980957 L799.57373,104.020508 L798.547852,104.020508 L802.774902,94.980957 Z" id="Shape" sketch:type="MSShapeGroup"></path>
                <path d="M811.574219,104.020508 L811.574219,104.933594 L805,104.933594 L805,104.020508 L811.574219,104.020508 Z" id="Shape" sketch:type="MSShapeGroup"></path>
                <path d="M818.574219,104.020508 L818.574219,104.933594 L812,104.933594 L812,104.020508 L818.574219,104.020508 Z" id="Shape" sketch:type="MSShapeGroup"></path>
                <path d="M823.774902,94.980957 L824.79541,94.980957 L820.57373,104.020508 L819.547852,104.020508 L823.774902,94.980957 Z" id="Shape" sketch:type="MSShapeGroup"></path>
                <path d="M799.57373,81.980957 L803.79541,91.020508 L802.774902,91.020508 L798.547852,81.980957 L799.57373,81.980957 Z" id="Shape" sketch:type="MSShapeGroup"></path>
                <path d="M811.574219,91.020508 L811.574219,91.933594 L805,91.933594 L805,91.020508 L811.574219,91.020508 Z" id="Shape" sketch:type="MSShapeGroup"></path>
                <path d="M818.574219,91.020508 L818.574219,91.933594 L812,91.933594 L812,91.020508 L818.574219,91.020508 Z" id="Shape" sketch:type="MSShapeGroup"></path>
                <path d="M825.574219,91.020508 L825.574219,91.933594 L819,91.933594 L819,91.020508 L825.574219,91.020508 Z" id="Shape" sketch:type="MSShapeGroup"></path>
                <path d="M830.774902,81.980957 L831.79541,81.980957 L827.57373,91.020508 L826.547852,91.020508 L830.774902,81.980957 Z" id="Shape" sketch:type="MSShapeGroup"></path>
                <path d="M39.774902,68.980957 L40.79541,68.980957 L36.57373,78.020508 L35.547852,78.020508 L39.774902,68.980957 Z" id="Shape" sketch:type="MSShapeGroup"></path>
                <path d="M48.574219,78.020508 L48.574219,78.933594 L42,78.933594 L42,78.020508 L48.574219,78.020508 Z" id="Shape" sketch:type="MSShapeGroup"></path>
                <path d="M53.774902,68.980957 L54.79541,68.980957 L50.57373,78.020508 L49.547852,78.020508 L53.774902,68.980957 Z" id="Shape" sketch:type="MSShapeGroup"></path>
                <path d="M57.57373,68.980957 L61.79541,78.020508 L60.774902,78.020508 L56.547852,68.980957 L57.57373,68.980957 Z" id="Shape" sketch:type="MSShapeGroup"></path>
                <path d="M67.774902,68.980957 L68.79541,68.980957 L64.57373,78.020508 L63.547852,78.020508 L67.774902,68.980957 Z" id="Shape" sketch:type="MSShapeGroup"></path>
                <path d="M76.574219,78.020508 L76.574219,78.933594 L70,78.933594 L70,78.020508 L76.574219,78.020508 Z" id="Shape" sketch:type="MSShapeGroup"></path>
                <path d="M81.774902,68.980957 L82.79541,68.980957 L78.57373,78.020508 L77.547852,78.020508 L81.774902,68.980957 Z" id="Shape" sketch:type="MSShapeGroup"></path>
                <path d="M85.57373,68.980957 L89.79541,78.020508 L88.774902,78.020508 L84.547852,68.980957 L85.57373,68.980957 Z" id="Shape" sketch:type="MSShapeGroup"></path>
                <path d="M95.774902,68.980957 L96.79541,68.980957 L92.57373,78.020508 L91.547852,78.020508 L95.774902,68.980957 Z" id="Shape" sketch:type="MSShapeGroup"></path>
                <path d="M104.574219,78.020508 L104.574219,78.933594 L98,78.933594 L98,78.020508 L104.574219,78.020508 Z" id="Shape" sketch:type="MSShapeGroup"></path>
                <path d="M111.574219,78.020508 L111.574219,78.933594 L105,78.933594 L105,78.020508 L111.574219,78.020508 Z" id="Shape" sketch:type="MSShapeGroup"></path>
                <path d="M118.574219,78.020508 L118.574219,78.933594 L112,78.933594 L112,78.020508 L118.574219,78.020508 Z" id="Shape" sketch:type="MSShapeGroup"></path>
                <path d="M125.574219,78.020508 L125.574219,78.933594 L119,78.933594 L119,78.020508 L125.574219,78.020508 Z" id="Shape" sketch:type="MSShapeGroup"></path>
                <path d="M130.774902,68.980957 L131.79541,68.980957 L127.57373,78.020508 L126.547852,78.020508 L130.774902,68.980957 Z" id="Shape" sketch:type="MSShapeGroup"></path>
                <path d="M134.57373,68.980957 L138.79541,78.020508 L137.774902,78.020508 L133.547852,68.980957 L134.57373,68.980957 Z" id="Shape" sketch:type="MSShapeGroup"></path>
                <path d="M144.774902,68.980957 L145.79541,68.980957 L141.57373,78.020508 L140.547852,78.020508 L144.774902,68.980957 Z" id="Shape" sketch:type="MSShapeGroup"></path>
                <path d="M153.574219,78.020508 L153.574219,78.933594 L147,78.933594 L147,78.020508 L153.574219,78.020508 Z" id="Shape" sketch:type="MSShapeGroup"></path>
                <path d="M160.574219,78.020508 L160.574219,78.933594 L154,78.933594 L154,78.020508 L160.574219,78.020508 Z" id="Shape" sketch:type="MSShapeGroup"></path>
                <path d="M167.574219,78.020508 L167.574219,78.933594 L161,78.933594 L161,78.020508 L167.574219,78.020508 Z" id="Shape" sketch:type="MSShapeGroup"></path>
                <path d="M174.574219,78.020508 L174.574219,78.933594 L168,78.933594 L168,78.020508 L174.574219,78.020508 Z" id="Shape" sketch:type="MSShapeGroup"></path>
                <path d="M179.774902,68.980957 L180.79541,68.980957 L176.57373,78.020508 L175.547852,78.020508 L179.774902,68.980957 Z" id="Shape" sketch:type="MSShapeGroup"></path>
                <path d="M190.57373,68.980957 L194.79541,78.020508 L193.774902,78.020508 L189.547852,68.980957 L190.57373,68.980957 Z" id="Shape" sketch:type="MSShapeGroup"></path>
                <path d="M200.774902,68.980957 L201.79541,68.980957 L197.57373,78.020508 L196.547852,78.020508 L200.774902,68.980957 Z" id="Shape" sketch:type="MSShapeGroup"></path>
                <path d="M209.574219,78.020508 L209.574219,78.933594 L203,78.933594 L203,78.020508 L209.574219,78.020508 Z" id="Shape" sketch:type="MSShapeGroup"></path>
                <path d="M214.774902,68.980957 L215.79541,68.980957 L211.57373,78.020508 L210.547852,78.020508 L214.774902,68.980957 Z" id="Shape" sketch:type="MSShapeGroup"></path>
                <path d="M218.57373,68.980957 L222.79541,78.020508 L221.774902,78.020508 L217.547852,68.980957 L218.57373,68.980957 Z" id="Shape" sketch:type="MSShapeGroup"></path>
                <path d="M228.774902,68.980957 L229.79541,68.980957 L225.57373,78.020508 L224.547852,78.020508 L228.774902,68.980957 Z" id="Shape" sketch:type="MSShapeGroup"></path>
                <path d="M237.574219,78.020508 L237.574219,78.933594 L231,78.933594 L231,78.020508 L237.574219,78.020508 Z" id="Shape" sketch:type="MSShapeGroup"></path>
                <path d="M242.774902,68.980957 L243.79541,68.980957 L239.57373,78.020508 L238.547852,78.020508 L242.774902,68.980957 Z" id="Shape" sketch:type="MSShapeGroup"></path>
                <path d="M246.57373,68.980957 L250.79541,78.020508 L249.774902,78.020508 L245.547852,68.980957 L246.57373,68.980957 Z" id="Shape" sketch:type="MSShapeGroup"></path>
                <path d="M256.774902,68.980957 L257.79541,68.980957 L253.57373,78.020508 L252.547852,78.020508 L256.774902,68.980957 Z" id="Shape" sketch:type="MSShapeGroup"></path>
                <path d="M265.574219,78.020508 L265.574219,78.933594 L259,78.933594 L259,78.020508 L265.574219,78.020508 Z" id="Shape" sketch:type="MSShapeGroup"></path>
                <path d="M272.574219,78.020508 L272.574219,78.933594 L266,78.933594 L266,78.020508 L272.574219,78.020508 Z" id="Shape" sketch:type="MSShapeGroup"></path>
                <path d="M279.574219,78.020508 L279.574219,78.933594 L273,78.933594 L273,78.020508 L279.574219,78.020508 Z" id="Shape" sketch:type="MSShapeGroup"></path>
                <path d="M284.774902,68.980957 L285.79541,68.980957 L281.57373,78.020508 L280.547852,78.020508 L284.774902,68.980957 Z" id="Shape" sketch:type="MSShapeGroup"></path>
                <path d="M302.57373,68.980957 L306.79541,78.020508 L305.774902,78.020508 L301.547852,68.980957 L302.57373,68.980957 Z" id="Shape" sketch:type="MSShapeGroup"></path>
                <path d="M312.774902,68.980957 L313.79541,68.980957 L309.57373,78.020508 L308.547852,78.020508 L312.774902,68.980957 Z" id="Shape" sketch:type="MSShapeGroup"></path>
                <path d="M321.574219,78.020508 L321.574219,78.933594 L315,78.933594 L315,78.020508 L321.574219,78.020508 Z" id="Shape" sketch:type="MSShapeGroup"></path>
                <path d="M328.574219,78.020508 L328.574219,78.933594 L322,78.933594 L322,78.020508 L328.574219,78.020508 Z" id="Shape" sketch:type="MSShapeGroup"></path>
                <path d="M333.774902,68.980957 L334.79541,68.980957 L330.57373,78.020508 L329.547852,78.020508 L333.774902,68.980957 Z" id="Shape" sketch:type="MSShapeGroup"></path>
                <path d="M337.57373,68.980957 L341.79541,78.020508 L340.774902,78.020508 L336.547852,68.980957 L337.57373,68.980957 Z" id="Shape" sketch:type="MSShapeGroup"></path>
                <path d="M347.774902,68.980957 L348.79541,68.980957 L344.57373,78.020508 L343.547852,78.020508 L347.774902,68.980957 Z" id="Shape" sketch:type="MSShapeGroup"></path>
                <path d="M356.574219,78.020508 L356.574219,78.933594 L350,78.933594 L350,78.020508 L356.574219,78.020508 Z" id="Shape" sketch:type="MSShapeGroup"></path>
                <path d="M361.774902,68.980957 L362.79541,68.980957 L358.57373,78.020508 L357.547852,78.020508 L361.774902,68.980957 Z" id="Shape" sketch:type="MSShapeGroup"></path>
                <path d="M365.57373,68.980957 L369.79541,78.020508 L368.774902,78.020508 L364.547852,68.980957 L365.57373,68.980957 Z" id="Shape" sketch:type="MSShapeGroup"></path>
                <path d="M375.774902,68.980957 L376.79541,68.980957 L372.57373,78.020508 L371.547852,78.020508 L375.774902,68.980957 Z" id="Shape" sketch:type="MSShapeGroup"></path>
                <path d="M384.574219,78.020508 L384.574219,78.933594 L378,78.933594 L378,78.020508 L384.574219,78.020508 Z" id="Shape" sketch:type="MSShapeGroup"></path>
                <path d="M389.774902,68.980957 L390.79541,68.980957 L386.57373,78.020508 L385.547852,78.020508 L389.774902,68.980957 Z" id="Shape" sketch:type="MSShapeGroup"></path>
                <path d="M393.57373,68.980957 L397.79541,78.020508 L396.774902,78.020508 L392.547852,68.980957 L393.57373,68.980957 Z" id="Shape" sketch:type="MSShapeGroup"></path>
                <path d="M403.774902,68.980957 L404.79541,68.980957 L400.57373,78.020508 L399.547852,78.020508 L403.774902,68.980957 Z" id="Shape" sketch:type="MSShapeGroup"></path>
                <path d="M412.574219,78.020508 L412.574219,78.933594 L406,78.933594 L406,78.020508 L412.574219,78.020508 Z" id="Shape" sketch:type="MSShapeGroup"></path>
                <path d="M417.774902,68.980957 L418.79541,68.980957 L414.57373,78.020508 L413.547852,78.020508 L417.774902,68.980957 Z" id="Shape" sketch:type="MSShapeGroup"></path>
                <path d="M421.57373,68.980957 L425.79541,78.020508 L424.774902,78.020508 L420.547852,68.980957 L421.57373,68.980957 Z" id="Shape" sketch:type="MSShapeGroup"></path>
                <path d="M431.774902,68.980957 L432.79541,68.980957 L428.57373,78.020508 L427.547852,78.020508 L431.774902,68.980957 Z" id="Shape" sketch:type="MSShapeGroup"></path>
                <path d="M440.574219,78.020508 L440.574219,78.933594 L434,78.933594 L434,78.020508 L440.574219,78.020508 Z" id="Shape" sketch:type="MSShapeGroup"></path>
                <path d="M447.574219,78.020508 L447.574219,78.933594 L441,78.933594 L441,78.020508 L447.574219,78.020508 Z" id="Shape" sketch:type="MSShapeGroup"></path>
                <path d="M450.374023,75.061035 L452.049805,75.061035 L452.049805,76.484375 L450.857422,78.799316 L449.783203,78.804688 L450.374023,76.484375 L450.374023,75.061035 Z" id="Shape" sketch:type="MSShapeGroup"></path>
                <path d="M461.574219,78.020508 L461.574219,78.933594 L455,78.933594 L455,78.020508 L461.574219,78.020508 Z" id="Shape" sketch:type="MSShapeGroup"></path>
                <path d="M473.774902,68.980957 L474.79541,68.980957 L470.57373,78.020508 L469.547852,78.020508 L473.774902,68.980957 Z" id="Shape" sketch:type="MSShapeGroup"></path>
                <path d="M477.57373,68.980957 L481.79541,78.020508 L480.774902,78.020508 L476.547852,68.980957 L477.57373,68.980957 Z" id="Shape" sketch:type="MSShapeGroup"></path>
                <path d="M487.774902,68.980957 L488.79541,68.980957 L484.57373,78.020508 L483.547852,78.020508 L487.774902,68.980957 Z" id="Shape" sketch:type="MSShapeGroup"></path>
                <path d="M496.574219,78.020508 L496.574219,78.933594 L490,78.933594 L490,78.020508 L496.574219,78.020508 Z" id="Shape" sketch:type="MSShapeGroup"></path>
                <path d="M503.574219,78.020508 L503.574219,78.933594 L497,78.933594 L497,78.020508 L503.574219,78.020508 Z" id="Shape" sketch:type="MSShapeGroup"></path>
                <path d="M510.574219,78.020508 L510.574219,78.933594 L504,78.933594 L504,78.020508 L510.574219,78.020508 Z" id="Shape" sketch:type="MSShapeGroup"></path>
                <path d="M517.574219,78.020508 L517.574219,78.933594 L511,78.933594 L511,78.020508 L517.574219,78.020508 Z" id="Shape" sketch:type="MSShapeGroup"></path>
                <path d="M522.774902,68.980957 L523.79541,68.980957 L519.57373,78.020508 L518.547852,78.020508 L522.774902,68.980957 Z" id="Shape" sketch:type="MSShapeGroup"></path>
                <path d="M533.57373,68.980957 L537.79541,78.020508 L536.774902,78.020508 L532.547852,68.980957 L533.57373,68.980957 Z" id="Shape" sketch:type="MSShapeGroup"></path>
                <path d="M543.774902,68.980957 L544.79541,68.980957 L540.57373,78.020508 L539.547852,78.020508 L543.774902,68.980957 Z" id="Shape" sketch:type="MSShapeGroup"></path>
                <path d="M552.574219,78.020508 L552.574219,78.933594 L546,78.933594 L546,78.020508 L552.574219,78.020508 Z" id="Shape" sketch:type="MSShapeGroup"></path>
                <path d="M557.774902,68.980957 L558.79541,68.980957 L554.57373,78.020508 L553.547852,78.020508 L557.774902,68.980957 Z" id="Shape" sketch:type="MSShapeGroup"></path>
                <path d="M610.57373,68.980957 L614.79541,78.020508 L613.774902,78.020508 L609.547852,68.980957 L610.57373,68.980957 Z" id="Shape" sketch:type="MSShapeGroup"></path>
                <path d="M620.774902,68.980957 L621.79541,68.980957 L617.57373,78.020508 L616.547852,78.020508 L620.774902,68.980957 Z" id="Shape" sketch:type="MSShapeGroup"></path>
                <path d="M629.574219,78.020508 L629.574219,78.933594 L623,78.933594 L623,78.020508 L629.574219,78.020508 Z" id="Shape" sketch:type="MSShapeGroup"></path>
                <path d="M636.574219,78.020508 L636.574219,78.933594 L630,78.933594 L630,78.020508 L636.574219,78.020508 Z" id="Shape" sketch:type="MSShapeGroup"></path>
                <path d="M643.574219,78.020508 L643.574219,78.933594 L637,78.933594 L637,78.020508 L643.574219,78.020508 Z" id="Shape" sketch:type="MSShapeGroup"></path>
                <path d="M648.774902,68.980957 L649.79541,68.980957 L645.57373,78.020508 L644.547852,78.020508 L648.774902,68.980957 Z" id="Shape" sketch:type="MSShapeGroup"></path>
                <path d="M666.57373,68.980957 L670.79541,78.020508 L669.774902,78.020508 L665.547852,68.980957 L666.57373,68.980957 Z" id="Shape" sketch:type="MSShapeGroup"></path>
                <path d="M676.774902,68.980957 L677.79541,68.980957 L673.57373,78.020508 L672.547852,78.020508 L676.774902,68.980957 Z" id="Shape" sketch:type="MSShapeGroup"></path>
                <path d="M685.574219,78.020508 L685.574219,78.933594 L679,78.933594 L679,78.020508 L685.574219,78.020508 Z" id="Shape" sketch:type="MSShapeGroup"></path>
                <path d="M690.774902,68.980957 L691.79541,68.980957 L687.57373,78.020508 L686.547852,78.020508 L690.774902,68.980957 Z" id="Shape" sketch:type="MSShapeGroup"></path>
                <path d="M715.57373,68.980957 L719.79541,78.020508 L718.774902,78.020508 L714.547852,68.980957 L715.57373,68.980957 Z" id="Shape" sketch:type="MSShapeGroup"></path>
                <path d="M725.774902,68.980957 L726.79541,68.980957 L722.57373,78.020508 L721.547852,78.020508 L725.774902,68.980957 Z" id="Shape" sketch:type="MSShapeGroup"></path>
                <path d="M734.574219,78.020508 L734.574219,78.933594 L728,78.933594 L728,78.020508 L734.574219,78.020508 Z" id="Shape" sketch:type="MSShapeGroup"></path>
                <path d="M741.574219,78.020508 L741.574219,78.933594 L735,78.933594 L735,78.020508 L741.574219,78.020508 Z" id="Shape" sketch:type="MSShapeGroup"></path>
                <path d="M748.574219,78.020508 L748.574219,78.933594 L742,78.933594 L742,78.020508 L748.574219,78.020508 Z" id="Shape" sketch:type="MSShapeGroup"></path>
                <path d="M755.574219,78.020508 L755.574219,78.933594 L749,78.933594 L749,78.020508 L755.574219,78.020508 Z" id="Shape" sketch:type="MSShapeGroup"></path>
                <path d="M760.774902,68.980957 L761.79541,68.980957 L757.57373,78.020508 L756.547852,78.020508 L760.774902,68.980957 Z" id="Shape" sketch:type="MSShapeGroup"></path>
                <path d="M772.562012,68.202148 L774.071289,70.22168 L773.244141,70.22168 L771.498535,68.202148 L772.562012,68.202148 Z" id="Shape" sketch:type="MSShapeGroup"></path>
                <path d="M781.774902,68.980957 L782.79541,68.980957 L778.57373,78.020508 L777.547852,78.020508 L781.774902,68.980957 Z" id="Shape" sketch:type="MSShapeGroup"></path>
                <path d="M790.574219,78.020508 L790.574219,78.933594 L784,78.933594 L784,78.020508 L790.574219,78.020508 Z" id="Shape" sketch:type="MSShapeGroup"></path>
                <path d="M797.574219,78.020508 L797.574219,78.933594 L791,78.933594 L791,78.020508 L797.574219,78.020508 Z" id="Shape" sketch:type="MSShapeGroup"></path>
                <path d="M804.574219,78.020508 L804.574219,78.933594 L798,78.933594 L798,78.020508 L804.574219,78.020508 Z" id="Shape" sketch:type="MSShapeGroup"></path>
                <path d="M809.774902,68.980957 L810.79541,68.980957 L806.57373,78.020508 L805.547852,78.020508 L809.774902,68.980957 Z" id="Shape" sketch:type="MSShapeGroup"></path>
                <path d="M812.472656,71.838379 L812.472656,70.86084 L818.149902,73.105957 L818.149902,73.997559 L812.472656,76.242676 L812.472656,75.259766 L817.038086,73.557129 L812.472656,71.838379 Z" id="Shape" sketch:type="MSShapeGroup"></path>
                <path d="M827.57373,68.980957 L831.79541,78.020508 L830.774902,78.020508 L826.547852,68.980957 L827.57373,68.980957 Z" id="Shape" sketch:type="MSShapeGroup"></path>
                <path d="M834.57373,68.980957 L838.79541,78.020508 L837.774902,78.020508 L833.547852,68.980957 L834.57373,68.980957 Z" id="Shape" sketch:type="MSShapeGroup"></path>
                <path d="M844.774902,68.980957 L845.79541,68.980957 L841.57373,78.020508 L840.547852,78.020508 L844.774902,68.980957 Z" id="Shape" sketch:type="MSShapeGroup"></path>
                <path d="M853.574219,78.020508 L853.574219,78.933594 L847,78.933594 L847,78.020508 L853.574219,78.020508 Z" id="Shape" sketch:type="MSShapeGroup"></path>
                <path d="M860.574219,78.020508 L860.574219,78.933594 L854,78.933594 L854,78.020508 L860.574219,78.020508 Z" id="Shape" sketch:type="MSShapeGroup"></path>
                <path d="M867.574219,78.020508 L867.574219,78.933594 L861,78.933594 L861,78.020508 L867.574219,78.020508 Z" id="Shape" sketch:type="MSShapeGroup"></path>
                <path d="M872.774902,68.980957 L873.79541,68.980957 L869.57373,78.020508 L868.547852,78.020508 L872.774902,68.980957 Z" id="Shape" sketch:type="MSShapeGroup"></path>
                <path d="M36.57373,55.980957 L40.79541,65.020508 L39.774902,65.020508 L35.547852,55.980957 L36.57373,55.980957 Z" id="Shape" sketch:type="MSShapeGroup"></path>
                <path d="M48.574219,65.020508 L48.574219,65.933594 L42,65.933594 L42,65.020508 L48.574219,65.020508 Z" id="Shape" sketch:type="MSShapeGroup"></path>
                <path d="M50.57373,55.980957 L54.79541,65.020508 L53.774902,65.020508 L49.547852,55.980957 L50.57373,55.980957 Z" id="Shape" sketch:type="MSShapeGroup"></path>
                <path d="M64.57373,55.980957 L68.79541,65.020508 L67.774902,65.020508 L63.547852,55.980957 L64.57373,55.980957 Z" id="Shape" sketch:type="MSShapeGroup"></path>
                <path d="M76.574219,65.020508 L76.574219,65.933594 L70,65.933594 L70,65.020508 L76.574219,65.020508 Z" id="Shape" sketch:type="MSShapeGroup"></path>
                <path d="M78.57373,55.980957 L82.79541,65.020508 L81.774902,65.020508 L77.547852,55.980957 L78.57373,55.980957 Z" id="Shape" sketch:type="MSShapeGroup"></path>
                <path d="M88.774902,55.980957 L89.79541,55.980957 L85.57373,65.020508 L84.547852,65.020508 L88.774902,55.980957 Z" id="Shape" sketch:type="MSShapeGroup"></path>
                <path d="M92.57373,55.980957 L96.79541,65.020508 L95.774902,65.020508 L91.547852,55.980957 L92.57373,55.980957 Z" id="Shape" sketch:type="MSShapeGroup"></path>
                <path d="M104.574219,65.020508 L104.574219,65.933594 L98,65.933594 L98,65.020508 L104.574219,65.020508 Z" id="Shape" sketch:type="MSShapeGroup"></path>
                <path d="M111.574219,65.020508 L111.574219,65.933594 L105,65.933594 L105,65.020508 L111.574219,65.020508 Z" id="Shape" sketch:type="MSShapeGroup"></path>
                <path d="M118.574219,65.020508 L118.574219,65.933594 L112,65.933594 L112,65.020508 L118.574219,65.020508 Z" id="Shape" sketch:type="MSShapeGroup"></path>
                <path d="M125.574219,65.020508 L125.574219,65.933594 L119,65.933594 L119,65.020508 L125.574219,65.020508 Z" id="Shape" sketch:type="MSShapeGroup"></path>
                <path d="M127.57373,55.980957 L131.79541,65.020508 L130.774902,65.020508 L126.547852,55.980957 L127.57373,55.980957 Z" id="Shape" sketch:type="MSShapeGroup"></path>
                <path d="M141.57373,55.980957 L145.79541,65.020508 L144.774902,65.020508 L140.547852,55.980957 L141.57373,55.980957 Z" id="Shape" sketch:type="MSShapeGroup"></path>
                <path d="M153.574219,65.020508 L153.574219,65.933594 L147,65.933594 L147,65.020508 L153.574219,65.020508 Z" id="Shape" sketch:type="MSShapeGroup"></path>
                <path d="M160.574219,65.020508 L160.574219,65.933594 L154,65.933594 L154,65.020508 L160.574219,65.020508 Z" id="Shape" sketch:type="MSShapeGroup"></path>
                <path d="M167.574219,65.020508 L167.574219,65.933594 L161,65.933594 L161,65.020508 L167.574219,65.020508 Z" id="Shape" sketch:type="MSShapeGroup"></path>
                <path d="M174.574219,65.020508 L174.574219,65.933594 L168,65.933594 L168,65.020508 L174.574219,65.020508 Z" id="Shape" sketch:type="MSShapeGroup"></path>
                <path d="M176.57373,55.980957 L180.79541,65.020508 L179.774902,65.020508 L175.547852,55.980957 L176.57373,55.980957 Z" id="Shape" sketch:type="MSShapeGroup"></path>
                <path d="M183.57373,55.980957 L187.79541,65.020508 L186.774902,65.020508 L182.547852,55.980957 L183.57373,55.980957 Z" id="Shape" sketch:type="MSShapeGroup"></path>
                <path d="M197.57373,55.980957 L201.79541,65.020508 L200.774902,65.020508 L196.547852,55.980957 L197.57373,55.980957 Z" id="Shape" sketch:type="MSShapeGroup"></path>
                <path d="M209.574219,65.020508 L209.574219,65.933594 L203,65.933594 L203,65.020508 L209.574219,65.020508 Z" id="Shape" sketch:type="MSShapeGroup"></path>
                <path d="M211.57373,55.980957 L215.79541,65.020508 L214.774902,65.020508 L210.547852,55.980957 L211.57373,55.980957 Z" id="Shape" sketch:type="MSShapeGroup"></path>
                <path d="M225.57373,55.980957 L229.79541,65.020508 L228.774902,65.020508 L224.547852,55.980957 L225.57373,55.980957 Z" id="Shape" sketch:type="MSShapeGroup"></path>
                <path d="M237.574219,65.020508 L237.574219,65.933594 L231,65.933594 L231,65.020508 L237.574219,65.020508 Z" id="Shape" sketch:type="MSShapeGroup"></path>
                <path d="M239.57373,55.980957 L243.79541,65.020508 L242.774902,65.020508 L238.547852,55.980957 L239.57373,55.980957 Z" id="Shape" sketch:type="MSShapeGroup"></path>
                <path d="M249.774902,55.980957 L250.79541,55.980957 L246.57373,65.020508 L245.547852,65.020508 L249.774902,55.980957 Z" id="Shape" sketch:type="MSShapeGroup"></path>
                <path d="M253.57373,55.980957 L257.79541,65.020508 L256.774902,65.020508 L252.547852,55.980957 L253.57373,55.980957 Z" id="Shape" sketch:type="MSShapeGroup"></path>
                <path d="M265.574219,65.020508 L265.574219,65.933594 L259,65.933594 L259,65.020508 L265.574219,65.020508 Z" id="Shape" sketch:type="MSShapeGroup"></path>
                <path d="M272.574219,65.020508 L272.574219,65.933594 L266,65.933594 L266,65.020508 L272.574219,65.020508 Z" id="Shape" sketch:type="MSShapeGroup"></path>
                <path d="M279.574219,65.020508 L279.574219,65.933594 L273,65.933594 L273,65.020508 L279.574219,65.020508 Z" id="Shape" sketch:type="MSShapeGroup"></path>
                <path d="M286.574219,65.020508 L286.574219,65.933594 L280,65.933594 L280,65.020508 L286.574219,65.020508 Z" id="Shape" sketch:type="MSShapeGroup"></path>
                <path d="M291.774902,55.980957 L292.79541,55.980957 L288.57373,65.020508 L287.547852,65.020508 L291.774902,55.980957 Z" id="Shape" sketch:type="MSShapeGroup"></path>
                <path d="M295.57373,55.980957 L299.79541,65.020508 L298.774902,65.020508 L294.547852,55.980957 L295.57373,55.980957 Z" id="Shape" sketch:type="MSShapeGroup"></path>
                <path d="M309.57373,55.980957 L313.79541,65.020508 L312.774902,65.020508 L308.547852,55.980957 L309.57373,55.980957 Z" id="Shape" sketch:type="MSShapeGroup"></path>
                <path d="M321.574219,65.020508 L321.574219,65.933594 L315,65.933594 L315,65.020508 L321.574219,65.020508 Z" id="Shape" sketch:type="MSShapeGroup"></path>
                <path d="M328.574219,65.020508 L328.574219,65.933594 L322,65.933594 L322,65.020508 L328.574219,65.020508 Z" id="Shape" sketch:type="MSShapeGroup"></path>
                <path d="M333.774902,55.980957 L334.79541,55.980957 L330.57373,65.020508 L329.547852,65.020508 L333.774902,55.980957 Z" id="Shape" sketch:type="MSShapeGroup"></path>
                <path d="M338.089355,61.830078 L339.97998,61.830078 L339.97998,64 L338.089355,64 L338.089355,61.830078 Z" id="Shape" sketch:type="MSShapeGroup"></path>
                <path d="M344.57373,55.980957 L348.79541,65.020508 L347.774902,65.020508 L343.547852,55.980957 L344.57373,55.980957 Z" id="Shape" sketch:type="MSShapeGroup"></path>
                <path d="M356.574219,65.020508 L356.574219,65.933594 L350,65.933594 L350,65.020508 L356.574219,65.020508 Z" id="Shape" sketch:type="MSShapeGroup"></path>
                <path d="M358.57373,55.980957 L362.79541,65.020508 L361.774902,65.020508 L357.547852,55.980957 L358.57373,55.980957 Z" id="Shape" sketch:type="MSShapeGroup"></path>
                <path d="M372.57373,55.980957 L376.79541,65.020508 L375.774902,65.020508 L371.547852,55.980957 L372.57373,55.980957 Z" id="Shape" sketch:type="MSShapeGroup"></path>
                <path d="M384.574219,65.020508 L384.574219,65.933594 L378,65.933594 L378,65.020508 L384.574219,65.020508 Z" id="Shape" sketch:type="MSShapeGroup"></path>
                <path d="M386.57373,55.980957 L390.79541,65.020508 L389.774902,65.020508 L385.547852,55.980957 L386.57373,55.980957 Z" id="Shape" sketch:type="MSShapeGroup"></path>
                <path d="M400.57373,55.980957 L404.79541,65.020508 L403.774902,65.020508 L399.547852,55.980957 L400.57373,55.980957 Z" id="Shape" sketch:type="MSShapeGroup"></path>
                <path d="M412.574219,65.020508 L412.574219,65.933594 L406,65.933594 L406,65.020508 L412.574219,65.020508 Z" id="Shape" sketch:type="MSShapeGroup"></path>
                <path d="M414.57373,55.980957 L418.79541,65.020508 L417.774902,65.020508 L413.547852,55.980957 L414.57373,55.980957 Z" id="Shape" sketch:type="MSShapeGroup"></path>
                <path d="M428.57373,55.980957 L432.79541,65.020508 L431.774902,65.020508 L427.547852,55.980957 L428.57373,55.980957 Z" id="Shape" sketch:type="MSShapeGroup"></path>
                <path d="M440.574219,65.020508 L440.574219,65.933594 L434,65.933594 L434,65.020508 L440.574219,65.020508 Z" id="Shape" sketch:type="MSShapeGroup"></path>
                <path d="M447.574219,65.020508 L447.574219,65.933594 L441,65.933594 L441,65.020508 L447.574219,65.020508 Z" id="Shape" sketch:type="MSShapeGroup"></path>
                <path d="M454.574219,65.020508 L454.574219,65.933594 L448,65.933594 L448,65.020508 L454.574219,65.020508 Z" id="Shape" sketch:type="MSShapeGroup"></path>
                <path d="M457.374023,62.061035 L459.049805,62.061035 L459.049805,63.484375 L457.857422,65.799316 L456.783203,65.804688 L457.374023,63.484375 L457.374023,62.061035 Z" id="Shape" sketch:type="MSShapeGroup"></path>
                <path d="M468.574219,65.020508 L468.574219,65.933594 L462,65.933594 L462,65.020508 L468.574219,65.020508 Z" id="Shape" sketch:type="MSShapeGroup"></path>
                <path d="M470.57373,55.980957 L474.79541,65.020508 L473.774902,65.020508 L469.547852,55.980957 L470.57373,55.980957 Z" id="Shape" sketch:type="MSShapeGroup"></path>
                <path d="M484.57373,55.980957 L488.79541,65.020508 L487.774902,65.020508 L483.547852,55.980957 L484.57373,55.980957 Z" id="Shape" sketch:type="MSShapeGroup"></path>
                <path d="M496.574219,65.020508 L496.574219,65.933594 L490,65.933594 L490,65.020508 L496.574219,65.020508 Z" id="Shape" sketch:type="MSShapeGroup"></path>
                <path d="M503.574219,65.020508 L503.574219,65.933594 L497,65.933594 L497,65.020508 L503.574219,65.020508 Z" id="Shape" sketch:type="MSShapeGroup"></path>
                <path d="M510.574219,65.020508 L510.574219,65.933594 L504,65.933594 L504,65.020508 L510.574219,65.020508 Z" id="Shape" sketch:type="MSShapeGroup"></path>
                <path d="M517.574219,65.020508 L517.574219,65.933594 L511,65.933594 L511,65.020508 L517.574219,65.020508 Z" id="Shape" sketch:type="MSShapeGroup"></path>
                <path d="M519.57373,55.980957 L523.79541,65.020508 L522.774902,65.020508 L518.547852,55.980957 L519.57373,55.980957 Z" id="Shape" sketch:type="MSShapeGroup"></path>
                <path d="M526.57373,55.980957 L530.79541,65.020508 L529.774902,65.020508 L525.547852,55.980957 L526.57373,55.980957 Z" id="Shape" sketch:type="MSShapeGroup"></path>
                <path d="M540.57373,55.980957 L544.79541,65.020508 L543.774902,65.020508 L539.547852,55.980957 L540.57373,55.980957 Z" id="Shape" sketch:type="MSShapeGroup"></path>
                <path d="M552.574219,65.020508 L552.574219,65.933594 L546,65.933594 L546,65.020508 L552.574219,65.020508 Z" id="Shape" sketch:type="MSShapeGroup"></path>
                <path d="M554.57373,55.980957 L558.79541,65.020508 L557.774902,65.020508 L553.547852,55.980957 L554.57373,55.980957 Z" id="Shape" sketch:type="MSShapeGroup"></path>
                <path d="M603.57373,55.980957 L607.79541,65.020508 L606.774902,65.020508 L602.547852,55.980957 L603.57373,55.980957 Z" id="Shape" sketch:type="MSShapeGroup"></path>
                <path d="M617.57373,55.980957 L621.79541,65.020508 L620.774902,65.020508 L616.547852,55.980957 L617.57373,55.980957 Z" id="Shape" sketch:type="MSShapeGroup"></path>
                <path d="M629.574219,65.020508 L629.574219,65.933594 L623,65.933594 L623,65.020508 L629.574219,65.020508 Z" id="Shape" sketch:type="MSShapeGroup"></path>
                <path d="M636.574219,65.020508 L636.574219,65.933594 L630,65.933594 L630,65.020508 L636.574219,65.020508 Z" id="Shape" sketch:type="MSShapeGroup"></path>
                <path d="M643.574219,65.020508 L643.574219,65.933594 L637,65.933594 L637,65.020508 L643.574219,65.020508 Z" id="Shape" sketch:type="MSShapeGroup"></path>
                <path d="M650.574219,65.020508 L650.574219,65.933594 L644,65.933594 L644,65.020508 L650.574219,65.020508 Z" id="Shape" sketch:type="MSShapeGroup"></path>
                <path d="M655.774902,55.980957 L656.79541,55.980957 L652.57373,65.020508 L651.547852,65.020508 L655.774902,55.980957 Z" id="Shape" sketch:type="MSShapeGroup"></path>
                <path d="M659.57373,55.980957 L663.79541,65.020508 L662.774902,65.020508 L658.547852,55.980957 L659.57373,55.980957 Z" id="Shape" sketch:type="MSShapeGroup"></path>
                <path d="M673.57373,55.980957 L677.79541,65.020508 L676.774902,65.020508 L672.547852,55.980957 L673.57373,55.980957 Z" id="Shape" sketch:type="MSShapeGroup"></path>
                <path d="M685.574219,65.020508 L685.574219,65.933594 L679,65.933594 L679,65.020508 L685.574219,65.020508 Z" id="Shape" sketch:type="MSShapeGroup"></path>
                <path d="M687.57373,55.980957 L691.79541,65.020508 L690.774902,65.020508 L686.547852,55.980957 L687.57373,55.980957 Z" id="Shape" sketch:type="MSShapeGroup"></path>
                <path d="M718.774902,55.980957 L719.79541,55.980957 L715.57373,65.020508 L714.547852,65.020508 L718.774902,55.980957 Z" id="Shape" sketch:type="MSShapeGroup"></path>
                <path d="M722.57373,55.980957 L726.79541,65.020508 L725.774902,65.020508 L721.547852,55.980957 L722.57373,55.980957 Z" id="Shape" sketch:type="MSShapeGroup"></path>
                <path d="M734.574219,65.020508 L734.574219,65.933594 L728,65.933594 L728,65.020508 L734.574219,65.020508 Z" id="Shape" sketch:type="MSShapeGroup"></path>
                <path d="M741.574219,65.020508 L741.574219,65.933594 L735,65.933594 L735,65.020508 L741.574219,65.020508 Z" id="Shape" sketch:type="MSShapeGroup"></path>
                <path d="M748.574219,65.020508 L748.574219,65.933594 L742,65.933594 L742,65.020508 L748.574219,65.020508 Z" id="Shape" sketch:type="MSShapeGroup"></path>
                <path d="M755.574219,65.020508 L755.574219,65.933594 L749,65.933594 L749,65.020508 L755.574219,65.020508 Z" id="Shape" sketch:type="MSShapeGroup"></path>
                <path d="M757.57373,55.980957 L761.79541,65.020508 L760.774902,65.020508 L756.547852,55.980957 L757.57373,55.980957 Z" id="Shape" sketch:type="MSShapeGroup"></path>
                <path d="M764.57373,55.980957 L768.79541,65.020508 L767.774902,65.020508 L763.547852,55.980957 L764.57373,55.980957 Z" id="Shape" sketch:type="MSShapeGroup"></path>
                <path d="M774.774902,55.980957 L775.79541,55.980957 L771.57373,65.020508 L770.547852,65.020508 L774.774902,55.980957 Z" id="Shape" sketch:type="MSShapeGroup"></path>
                <path d="M779.562012,55.202148 L781.071289,57.22168 L780.244141,57.22168 L778.498535,55.202148 L779.562012,55.202148 Z" id="Shape" sketch:type="MSShapeGroup"></path>
                <path d="M790.574219,65.020508 L790.574219,65.933594 L784,65.933594 L784,65.020508 L790.574219,65.020508 Z" id="Shape" sketch:type="MSShapeGroup"></path>
                <path d="M797.574219,65.020508 L797.574219,65.933594 L791,65.933594 L791,65.020508 L797.574219,65.020508 Z" id="Shape" sketch:type="MSShapeGroup"></path>
                <path d="M804.574219,65.020508 L804.574219,65.933594 L798,65.933594 L798,65.020508 L804.574219,65.020508 Z" id="Shape" sketch:type="MSShapeGroup"></path>
                <path d="M811.574219,65.020508 L811.574219,65.933594 L805,65.933594 L805,65.020508 L811.574219,65.020508 Z" id="Shape" sketch:type="MSShapeGroup"></path>
                <path d="M820.57373,55.980957 L824.79541,65.020508 L823.774902,65.020508 L819.547852,55.980957 L820.57373,55.980957 Z" id="Shape" sketch:type="MSShapeGroup"></path>
                <path d="M827.57373,55.980957 L831.79541,65.020508 L830.774902,65.020508 L826.547852,55.980957 L827.57373,55.980957 Z" id="Shape" sketch:type="MSShapeGroup"></path>
                <path d="M841.57373,55.980957 L845.79541,65.020508 L844.774902,65.020508 L840.547852,55.980957 L841.57373,55.980957 Z" id="Shape" sketch:type="MSShapeGroup"></path>
                <path d="M853.574219,65.020508 L853.574219,65.933594 L847,65.933594 L847,65.020508 L853.574219,65.020508 Z" id="Shape" sketch:type="MSShapeGroup"></path>
                <path d="M856.374023,62.061035 L858.049805,62.061035 L858.049805,63.484375 L856.857422,65.799316 L855.783203,65.804688 L856.374023,63.484375 L856.374023,62.061035 Z" id="Shape" sketch:type="MSShapeGroup"></path>
                <path d="M867.574219,65.020508 L867.574219,65.933594 L861,65.933594 L861,65.020508 L867.574219,65.020508 Z" id="Shape" sketch:type="MSShapeGroup"></path>
                <path d="M874.574219,65.020508 L874.574219,65.933594 L868,65.933594 L868,65.020508 L874.574219,65.020508 Z" id="Shape" sketch:type="MSShapeGroup"></path>
                <path d="M879.774902,55.980957 L880.79541,55.980957 L876.57373,65.020508 L875.547852,65.020508 L879.774902,55.980957 Z" id="Shape" sketch:type="MSShapeGroup"></path>
                <path d="M29.57373,42.980957 L33.79541,52.020508 L32.774902,52.020508 L28.547852,42.980957 L29.57373,42.980957 Z" id="Shape" sketch:type="MSShapeGroup"></path>
                <path d="M43.57373,42.980957 L47.79541,52.020508 L46.774902,52.020508 L42.547852,42.980957 L43.57373,42.980957 Z" id="Shape" sketch:type="MSShapeGroup"></path>
                <path d="M53.774902,42.980957 L54.79541,42.980957 L50.57373,52.020508 L49.547852,52.020508 L53.774902,42.980957 Z" id="Shape" sketch:type="MSShapeGroup"></path>
                <path d="M57.57373,42.980957 L61.79541,52.020508 L60.774902,52.020508 L56.547852,42.980957 L57.57373,42.980957 Z" id="Shape" sketch:type="MSShapeGroup"></path>
                <path d="M71.57373,42.980957 L75.79541,52.020508 L74.774902,52.020508 L70.547852,42.980957 L71.57373,42.980957 Z" id="Shape" sketch:type="MSShapeGroup"></path>
                <path d="M85.57373,42.980957 L89.79541,52.020508 L88.774902,52.020508 L84.547852,42.980957 L85.57373,42.980957 Z" id="Shape" sketch:type="MSShapeGroup"></path>
                <path d="M97.574219,52.020508 L97.574219,52.933594 L91,52.933594 L91,52.020508 L97.574219,52.020508 Z" id="Shape" sketch:type="MSShapeGroup"></path>
                <path d="M99.57373,42.980957 L103.79541,52.020508 L102.774902,52.020508 L98.547852,42.980957 L99.57373,42.980957 Z" id="Shape" sketch:type="MSShapeGroup"></path>
                <path d="M113.57373,42.980957 L117.79541,52.020508 L116.774902,52.020508 L112.547852,42.980957 L113.57373,42.980957 Z" id="Shape" sketch:type="MSShapeGroup"></path>
                <path d="M125.574219,52.020508 L125.574219,52.933594 L119,52.933594 L119,52.020508 L125.574219,52.020508 Z" id="Shape" sketch:type="MSShapeGroup"></path>
                <path d="M130.774902,42.980957 L131.79541,42.980957 L127.57373,52.020508 L126.547852,52.020508 L130.774902,42.980957 Z" id="Shape" sketch:type="MSShapeGroup"></path>
                <path d="M134.57373,42.980957 L138.79541,52.020508 L137.774902,52.020508 L133.547852,42.980957 L134.57373,42.980957 Z" id="Shape" sketch:type="MSShapeGroup"></path>
                <path d="M160.574219,52.020508 L160.574219,52.933594 L154,52.933594 L154,52.020508 L160.574219,52.020508 Z" id="Shape" sketch:type="MSShapeGroup"></path>
                <path d="M167.574219,52.020508 L167.574219,52.933594 L161,52.933594 L161,52.020508 L167.574219,52.020508 Z" id="Shape" sketch:type="MSShapeGroup"></path>
                <path d="M172.774902,42.980957 L173.79541,42.980957 L169.57373,52.020508 L168.547852,52.020508 L172.774902,42.980957 Z" id="Shape" sketch:type="MSShapeGroup"></path>
                <path d="M176.57373,42.980957 L180.79541,52.020508 L179.774902,52.020508 L175.547852,42.980957 L176.57373,42.980957 Z" id="Shape" sketch:type="MSShapeGroup"></path>
                <path d="M190.57373,42.980957 L194.79541,52.020508 L193.774902,52.020508 L189.547852,42.980957 L190.57373,42.980957 Z" id="Shape" sketch:type="MSShapeGroup"></path>
                <path d="M204.57373,42.980957 L208.79541,52.020508 L207.774902,52.020508 L203.547852,42.980957 L204.57373,42.980957 Z" id="Shape" sketch:type="MSShapeGroup"></path>
                <path d="M211.57373,42.980957 L215.79541,52.020508 L214.774902,52.020508 L210.547852,42.980957 L211.57373,42.980957 Z" id="Shape" sketch:type="MSShapeGroup"></path>
                <path d="M219.562012,42.202148 L221.071289,44.22168 L220.244141,44.22168 L218.498535,42.202148 L219.562012,42.202148 Z" id="Shape" sketch:type="MSShapeGroup"></path>
                <path d="M225.57373,42.980957 L229.79541,52.020508 L228.774902,52.020508 L224.547852,42.980957 L225.57373,42.980957 Z" id="Shape" sketch:type="MSShapeGroup"></path>
                <path d="M242.774902,42.980957 L243.79541,42.980957 L239.57373,52.020508 L238.547852,52.020508 L242.774902,42.980957 Z" id="Shape" sketch:type="MSShapeGroup"></path>
                <path d="M246.57373,42.980957 L250.79541,52.020508 L249.774902,52.020508 L245.547852,42.980957 L246.57373,42.980957 Z" id="Shape" sketch:type="MSShapeGroup"></path>
                <path d="M258.574219,52.020508 L258.574219,52.933594 L252,52.933594 L252,52.020508 L258.574219,52.020508 Z" id="Shape" sketch:type="MSShapeGroup"></path>
                <path d="M265.574219,52.020508 L265.574219,52.933594 L259,52.933594 L259,52.020508 L265.574219,52.020508 Z" id="Shape" sketch:type="MSShapeGroup"></path>
                <path d="M268.374023,49.061035 L270.049805,49.061035 L270.049805,50.484375 L268.857422,52.799316 L267.783203,52.804688 L268.374023,50.484375 L268.374023,49.061035 Z" id="Shape" sketch:type="MSShapeGroup"></path>
                <path d="M282.562012,42.202148 L284.071289,44.22168 L283.244141,44.22168 L281.498535,42.202148 L282.562012,42.202148 Z" id="Shape" sketch:type="MSShapeGroup"></path>
                <path d="M288.57373,42.980957 L292.79541,52.020508 L291.774902,52.020508 L287.547852,42.980957 L288.57373,42.980957 Z" id="Shape" sketch:type="MSShapeGroup"></path>
                <path d="M298.774902,42.980957 L299.79541,42.980957 L295.57373,52.020508 L294.547852,52.020508 L298.774902,42.980957 Z" id="Shape" sketch:type="MSShapeGroup"></path>
                <path d="M302.57373,42.980957 L306.79541,52.020508 L305.774902,52.020508 L301.547852,42.980957 L302.57373,42.980957 Z" id="Shape" sketch:type="MSShapeGroup"></path>
                <path d="M316.57373,42.980957 L320.79541,52.020508 L319.774902,52.020508 L315.547852,42.980957 L316.57373,42.980957 Z" id="Shape" sketch:type="MSShapeGroup"></path>
                <path d="M323.154785,42.980957 L324.245117,42.980957 L324.245117,50.086914 L328.117676,50.086914 L328.117676,51 L323.154785,51 L323.154785,42.980957 Z" id="Shape" sketch:type="MSShapeGroup"></path>
                <path d="M330.57373,42.980957 L334.79541,52.020508 L333.774902,52.020508 L329.547852,42.980957 L330.57373,42.980957 Z" id="Shape" sketch:type="MSShapeGroup"></path>
                <path d="M338.089355,48.830078 L339.97998,48.830078 L339.97998,51 L338.089355,51 L338.089355,48.830078 Z" id="Shape" sketch:type="MSShapeGroup"></path>
                <path d="M344.57373,42.980957 L348.79541,52.020508 L347.774902,52.020508 L343.547852,42.980957 L344.57373,42.980957 Z" id="Shape" sketch:type="MSShapeGroup"></path>
                <path d="M356.574219,52.020508 L356.574219,52.933594 L350,52.933594 L350,52.020508 L356.574219,52.020508 Z" id="Shape" sketch:type="MSShapeGroup"></path>
                <path d="M361.774902,42.980957 L362.79541,42.980957 L358.57373,52.020508 L357.547852,52.020508 L361.774902,42.980957 Z" id="Shape" sketch:type="MSShapeGroup"></path>
                <path d="M365.57373,42.980957 L369.79541,52.020508 L368.774902,52.020508 L364.547852,42.980957 L365.57373,42.980957 Z" id="Shape" sketch:type="MSShapeGroup"></path>
                <path d="M379.57373,42.980957 L383.79541,52.020508 L382.774902,52.020508 L378.547852,42.980957 L379.57373,42.980957 Z" id="Shape" sketch:type="MSShapeGroup"></path>
                <path d="M389.774902,42.980957 L390.79541,42.980957 L386.57373,52.020508 L385.547852,52.020508 L389.774902,42.980957 Z" id="Shape" sketch:type="MSShapeGroup"></path>
                <path d="M393.57373,42.980957 L397.79541,52.020508 L396.774902,52.020508 L392.547852,42.980957 L393.57373,42.980957 Z" id="Shape" sketch:type="MSShapeGroup"></path>
                <path d="M407.57373,42.980957 L411.79541,52.020508 L410.774902,52.020508 L406.547852,42.980957 L407.57373,42.980957 Z" id="Shape" sketch:type="MSShapeGroup"></path>
                <path d="M417.774902,42.980957 L418.79541,42.980957 L414.57373,52.020508 L413.547852,52.020508 L417.774902,42.980957 Z" id="Shape" sketch:type="MSShapeGroup"></path>
                <path d="M421.57373,42.980957 L425.79541,52.020508 L424.774902,52.020508 L420.547852,42.980957 L421.57373,42.980957 Z" id="Shape" sketch:type="MSShapeGroup"></path>
                <path d="M435.57373,42.980957 L439.79541,52.020508 L438.774902,52.020508 L434.547852,42.980957 L435.57373,42.980957 Z" id="Shape" sketch:type="MSShapeGroup"></path>
                <path d="M442.154785,42.980957 L443.245117,42.980957 L443.245117,50.086914 L447.117676,50.086914 L447.117676,51 L442.154785,51 L442.154785,42.980957 Z" id="Shape" sketch:type="MSShapeGroup"></path>
                <path d="M449.57373,42.980957 L453.79541,52.020508 L452.774902,52.020508 L448.547852,42.980957 L449.57373,42.980957 Z" id="Shape" sketch:type="MSShapeGroup"></path>
                <path d="M463.57373,42.980957 L467.79541,52.020508 L466.774902,52.020508 L462.547852,42.980957 L463.57373,42.980957 Z" id="Shape" sketch:type="MSShapeGroup"></path>
                <path d="M473.774902,42.980957 L474.79541,42.980957 L470.57373,52.020508 L469.547852,52.020508 L473.774902,42.980957 Z" id="Shape" sketch:type="MSShapeGroup"></path>
                <path d="M477.57373,42.980957 L481.79541,52.020508 L480.774902,52.020508 L476.547852,42.980957 L477.57373,42.980957 Z" id="Shape" sketch:type="MSShapeGroup"></path>
                <path d="M503.574219,52.020508 L503.574219,52.933594 L497,52.933594 L497,52.020508 L503.574219,52.020508 Z" id="Shape" sketch:type="MSShapeGroup"></path>
                <path d="M510.574219,52.020508 L510.574219,52.933594 L504,52.933594 L504,52.020508 L510.574219,52.020508 Z" id="Shape" sketch:type="MSShapeGroup"></path>
                <path d="M515.774902,42.980957 L516.79541,42.980957 L512.57373,52.020508 L511.547852,52.020508 L515.774902,42.980957 Z" id="Shape" sketch:type="MSShapeGroup"></path>
                <path d="M519.57373,42.980957 L523.79541,52.020508 L522.774902,52.020508 L518.547852,42.980957 L519.57373,42.980957 Z" id="Shape" sketch:type="MSShapeGroup"></path>
                <path d="M533.57373,42.980957 L537.79541,52.020508 L536.774902,52.020508 L532.547852,42.980957 L533.57373,42.980957 Z" id="Shape" sketch:type="MSShapeGroup"></path>
                <path d="M547.57373,42.980957 L551.79541,52.020508 L550.774902,52.020508 L546.547852,42.980957 L547.57373,42.980957 Z" id="Shape" sketch:type="MSShapeGroup"></path>
                <path d="M557.774902,42.980957 L558.79541,42.980957 L554.57373,52.020508 L553.547852,52.020508 L557.774902,42.980957 Z" id="Shape" sketch:type="MSShapeGroup"></path>
                <path d="M596.57373,42.980957 L600.79541,52.020508 L599.774902,52.020508 L595.547852,42.980957 L596.57373,42.980957 Z" id="Shape" sketch:type="MSShapeGroup"></path>
                <path d="M610.57373,42.980957 L614.79541,52.020508 L613.774902,52.020508 L609.547852,42.980957 L610.57373,42.980957 Z" id="Shape" sketch:type="MSShapeGroup"></path>
                <path d="M624.57373,42.980957 L628.79541,52.020508 L627.774902,52.020508 L623.547852,42.980957 L624.57373,42.980957 Z" id="Shape" sketch:type="MSShapeGroup"></path>
                <path d="M634.774902,42.980957 L635.79541,42.980957 L631.57373,52.020508 L630.547852,52.020508 L634.774902,42.980957 Z" id="Shape" sketch:type="MSShapeGroup"></path>
                <path d="M639.374023,49.061035 L641.049805,49.061035 L641.049805,50.484375 L639.857422,52.799316 L638.783203,52.804688 L639.374023,50.484375 L639.374023,49.061035 Z" id="Shape" sketch:type="MSShapeGroup"></path>
                <path d="M652.57373,42.980957 L656.79541,52.020508 L655.774902,52.020508 L651.547852,42.980957 L652.57373,42.980957 Z" id="Shape" sketch:type="MSShapeGroup"></path>
                <path d="M666.57373,42.980957 L670.79541,52.020508 L669.774902,52.020508 L665.547852,42.980957 L666.57373,42.980957 Z" id="Shape" sketch:type="MSShapeGroup"></path>
                <path d="M680.57373,42.980957 L684.79541,52.020508 L683.774902,52.020508 L679.547852,42.980957 L680.57373,42.980957 Z" id="Shape" sketch:type="MSShapeGroup"></path>
                <path d="M690.774902,42.980957 L691.79541,42.980957 L687.57373,52.020508 L686.547852,52.020508 L690.774902,42.980957 Z" id="Shape" sketch:type="MSShapeGroup"></path>
                <path d="M701.57373,42.980957 L705.79541,52.020508 L704.774902,52.020508 L700.547852,42.980957 L701.57373,42.980957 Z" id="Shape" sketch:type="MSShapeGroup"></path>
                <path d="M711.774902,42.980957 L712.79541,42.980957 L708.57373,52.020508 L707.547852,52.020508 L711.774902,42.980957 Z" id="Shape" sketch:type="MSShapeGroup"></path>
                <path d="M720.574219,52.020508 L720.574219,52.933594 L714,52.933594 L714,52.020508 L720.574219,52.020508 Z" id="Shape" sketch:type="MSShapeGroup"></path>
                <path d="M725.774902,42.980957 L726.79541,42.980957 L722.57373,52.020508 L721.547852,52.020508 L725.774902,42.980957 Z" id="Shape" sketch:type="MSShapeGroup"></path>
                <path d="M746.774902,42.980957 L747.79541,42.980957 L743.57373,52.020508 L742.547852,52.020508 L746.774902,42.980957 Z" id="Shape" sketch:type="MSShapeGroup"></path>
                <path d="M755.574219,52.020508 L755.574219,52.933594 L749,52.933594 L749,52.020508 L755.574219,52.020508 Z" id="Shape" sketch:type="MSShapeGroup"></path>
                <path d="M757.57373,42.980957 L761.79541,52.020508 L760.774902,52.020508 L756.547852,42.980957 L757.57373,42.980957 Z" id="Shape" sketch:type="MSShapeGroup"></path>
                <path d="M771.57373,42.980957 L775.79541,52.020508 L774.774902,52.020508 L770.547852,42.980957 L771.57373,42.980957 Z" id="Shape" sketch:type="MSShapeGroup"></path>
                <path d="M785.57373,42.980957 L789.79541,52.020508 L788.774902,52.020508 L784.547852,42.980957 L785.57373,42.980957 Z" id="Shape" sketch:type="MSShapeGroup"></path>
                <path d="M797.574219,52.020508 L797.574219,52.933594 L791,52.933594 L791,52.020508 L797.574219,52.020508 Z" id="Shape" sketch:type="MSShapeGroup"></path>
                <path d="M799.57373,42.980957 L803.79541,52.020508 L802.774902,52.020508 L798.547852,42.980957 L799.57373,42.980957 Z" id="Shape" sketch:type="MSShapeGroup"></path>
                <path d="M813.57373,42.980957 L817.79541,52.020508 L816.774902,52.020508 L812.547852,42.980957 L813.57373,42.980957 Z" id="Shape" sketch:type="MSShapeGroup"></path>
                <path d="M820.57373,42.980957 L824.79541,52.020508 L823.774902,52.020508 L819.547852,42.980957 L820.57373,42.980957 Z" id="Shape" sketch:type="MSShapeGroup"></path>
                <path d="M834.57373,42.980957 L838.79541,52.020508 L837.774902,52.020508 L833.547852,42.980957 L834.57373,42.980957 Z" id="Shape" sketch:type="MSShapeGroup"></path>
                <path d="M848.57373,42.980957 L852.79541,52.020508 L851.774902,52.020508 L847.547852,42.980957 L848.57373,42.980957 Z" id="Shape" sketch:type="MSShapeGroup"></path>
                <path d="M855.154785,42.980957 L856.245117,42.980957 L856.245117,50.086914 L860.117676,50.086914 L860.117676,51 L855.154785,51 L855.154785,42.980957 Z" id="Shape" sketch:type="MSShapeGroup"></path>
                <path d="M862.57373,42.980957 L866.79541,52.020508 L865.774902,52.020508 L861.547852,42.980957 L862.57373,42.980957 Z" id="Shape" sketch:type="MSShapeGroup"></path>
                <path d="M876.57373,42.980957 L880.79541,52.020508 L879.774902,52.020508 L875.547852,42.980957 L876.57373,42.980957 Z" id="Shape" sketch:type="MSShapeGroup"></path>
                <path d="M22.57373,29.980957 L26.79541,39.020508 L25.774902,39.020508 L21.547852,29.980957 L22.57373,29.980957 Z" id="Shape" sketch:type="MSShapeGroup"></path>
                <path d="M48.574219,39.020508 L48.574219,39.933594 L42,39.933594 L42,39.020508 L48.574219,39.020508 Z" id="Shape" sketch:type="MSShapeGroup"></path>
                <path d="M55.574219,39.020508 L55.574219,39.933594 L49,39.933594 L49,39.020508 L55.574219,39.020508 Z" id="Shape" sketch:type="MSShapeGroup"></path>
                <path d="M64.57373,29.980957 L68.79541,39.020508 L67.774902,39.020508 L63.547852,29.980957 L64.57373,29.980957 Z" id="Shape" sketch:type="MSShapeGroup"></path>
                <path d="M78.57373,29.980957 L82.79541,39.020508 L81.774902,39.020508 L77.547852,29.980957 L78.57373,29.980957 Z" id="Shape" sketch:type="MSShapeGroup"></path>
                <path d="M92.57373,29.980957 L96.79541,39.020508 L95.774902,39.020508 L91.547852,29.980957 L92.57373,29.980957 Z" id="Shape" sketch:type="MSShapeGroup"></path>
                <path d="M106.57373,29.980957 L110.79541,39.020508 L109.774902,39.020508 L105.547852,29.980957 L106.57373,29.980957 Z" id="Shape" sketch:type="MSShapeGroup"></path>
                <path d="M137.774902,29.980957 L138.79541,29.980957 L134.57373,39.020508 L133.547852,39.020508 L137.774902,29.980957 Z" id="Shape" sketch:type="MSShapeGroup"></path>
                <path d="M143.985352,29.631836 L143.985352,32.978027 L142.782227,32.978027 L142.782227,29.631836 L143.985352,29.631836 Z" id="Shape" sketch:type="MSShapeGroup"></path>
                <path d="M153.574219,39.020508 L153.574219,39.933594 L147,39.933594 L147,39.020508 L153.574219,39.020508 Z" id="Shape" sketch:type="MSShapeGroup"></path>
                <path d="M160.574219,39.020508 L160.574219,39.933594 L154,39.933594 L154,39.020508 L160.574219,39.020508 Z" id="Shape" sketch:type="MSShapeGroup"></path>
                <path d="M163.562012,29.202148 L165.071289,31.22168 L164.244141,31.22168 L162.498535,29.202148 L163.562012,29.202148 Z" id="Shape" sketch:type="MSShapeGroup"></path>
                <path d="M169.57373,29.980957 L173.79541,39.020508 L172.774902,39.020508 L168.547852,29.980957 L169.57373,29.980957 Z" id="Shape" sketch:type="MSShapeGroup"></path>
                <path d="M183.57373,29.980957 L187.79541,39.020508 L186.774902,39.020508 L182.547852,29.980957 L183.57373,29.980957 Z" id="Shape" sketch:type="MSShapeGroup"></path>
                <path d="M198.374023,36.061035 L200.049805,36.061035 L200.049805,37.484375 L198.857422,39.799316 L197.783203,39.804688 L198.374023,37.484375 L198.374023,36.061035 Z" id="Shape" sketch:type="MSShapeGroup"></path>
                <path d="M216.149902,32.838379 L211.584473,34.557129 L216.149902,36.259766 L216.149902,37.242676 L210.472656,34.997559 L210.472656,34.105957 L216.149902,31.86084 L216.149902,32.838379 Z" id="Shape" sketch:type="MSShapeGroup"></path>
                <path d="M249.774902,29.980957 L250.79541,29.980957 L246.57373,39.020508 L245.547852,39.020508 L249.774902,29.980957 Z" id="Shape" sketch:type="MSShapeGroup"></path>
                <path d="M255.985352,29.631836 L255.985352,32.978027 L254.782227,32.978027 L254.782227,29.631836 L255.985352,29.631836 Z" id="Shape" sketch:type="MSShapeGroup"></path>
                <path d="M261.374023,36.061035 L263.049805,36.061035 L263.049805,37.484375 L261.857422,39.799316 L260.783203,39.804688 L261.374023,37.484375 L261.374023,36.061035 Z" id="Shape" sketch:type="MSShapeGroup"></path>
                <path d="M272.574219,39.020508 L272.574219,39.933594 L266,39.933594 L266,39.020508 L272.574219,39.020508 Z" id="Shape" sketch:type="MSShapeGroup"></path>
                <path d="M279.574219,39.020508 L279.574219,39.933594 L273,39.933594 L273,39.020508 L279.574219,39.020508 Z" id="Shape" sketch:type="MSShapeGroup"></path>
                <path d="M281.57373,29.980957 L285.79541,39.020508 L284.774902,39.020508 L280.547852,29.980957 L281.57373,29.980957 Z" id="Shape" sketch:type="MSShapeGroup"></path>
                <path d="M305.774902,29.980957 L306.79541,29.980957 L302.57373,39.020508 L301.547852,39.020508 L305.774902,29.980957 Z" id="Shape" sketch:type="MSShapeGroup"></path>
                <path d="M311.985352,29.631836 L311.985352,32.978027 L310.782227,32.978027 L310.782227,29.631836 L311.985352,29.631836 Z" id="Shape" sketch:type="MSShapeGroup"></path>
                <path d="M321.574219,39.020508 L321.574219,39.933594 L315,39.933594 L315,39.020508 L321.574219,39.020508 Z" id="Shape" sketch:type="MSShapeGroup"></path>
                <path d="M328.574219,39.020508 L328.574219,39.933594 L322,39.933594 L322,39.020508 L328.574219,39.020508 Z" id="Shape" sketch:type="MSShapeGroup"></path>
                <path d="M331.562012,29.202148 L333.071289,31.22168 L332.244141,31.22168 L330.498535,29.202148 L331.562012,29.202148 Z" id="Shape" sketch:type="MSShapeGroup"></path>
                <path d="M337.57373,29.980957 L341.79541,39.020508 L340.774902,39.020508 L336.547852,29.980957 L337.57373,29.980957 Z" id="Shape" sketch:type="MSShapeGroup"></path>
                <path d="M361.774902,29.980957 L362.79541,29.980957 L358.57373,39.020508 L357.547852,39.020508 L361.774902,29.980957 Z" id="Shape" sketch:type="MSShapeGroup"></path>
                <path d="M367.985352,29.631836 L367.985352,32.978027 L366.782227,32.978027 L366.782227,29.631836 L367.985352,29.631836 Z" id="Shape" sketch:type="MSShapeGroup"></path>
                <path d="M384.574219,39.020508 L384.574219,39.933594 L378,39.933594 L378,39.020508 L384.574219,39.020508 Z" id="Shape" sketch:type="MSShapeGroup"></path>
                <path d="M394.562012,29.202148 L396.071289,31.22168 L395.244141,31.22168 L393.498535,29.202148 L394.562012,29.202148 Z" id="Shape" sketch:type="MSShapeGroup"></path>
                <path d="M400.57373,29.980957 L404.79541,39.020508 L403.774902,39.020508 L399.547852,29.980957 L400.57373,29.980957 Z" id="Shape" sketch:type="MSShapeGroup"></path>
                <path d="M424.774902,29.980957 L425.79541,29.980957 L421.57373,39.020508 L420.547852,39.020508 L424.774902,29.980957 Z" id="Shape" sketch:type="MSShapeGroup"></path>
                <path d="M430.985352,29.631836 L430.985352,32.978027 L429.782227,32.978027 L429.782227,29.631836 L430.985352,29.631836 Z" id="Shape" sketch:type="MSShapeGroup"></path>
                <path d="M440.574219,39.020508 L440.574219,39.933594 L434,39.933594 L434,39.020508 L440.574219,39.020508 Z" id="Shape" sketch:type="MSShapeGroup"></path>
                <path d="M443.562012,29.202148 L445.071289,31.22168 L444.244141,31.22168 L442.498535,29.202148 L443.562012,29.202148 Z" id="Shape" sketch:type="MSShapeGroup"></path>
                <path d="M456.57373,29.980957 L460.79541,39.020508 L459.774902,39.020508 L455.547852,29.980957 L456.57373,29.980957 Z" id="Shape" sketch:type="MSShapeGroup"></path>
                <path d="M480.774902,29.980957 L481.79541,29.980957 L477.57373,39.020508 L476.547852,39.020508 L480.774902,29.980957 Z" id="Shape" sketch:type="MSShapeGroup"></path>
                <path d="M486.985352,29.631836 L486.985352,32.978027 L485.782227,32.978027 L485.782227,29.631836 L486.985352,29.631836 Z" id="Shape" sketch:type="MSShapeGroup"></path>
                <path d="M496.574219,39.020508 L496.574219,39.933594 L490,39.933594 L490,39.020508 L496.574219,39.020508 Z" id="Shape" sketch:type="MSShapeGroup"></path>
                <path d="M503.574219,39.020508 L503.574219,39.933594 L497,39.933594 L497,39.020508 L503.574219,39.020508 Z" id="Shape" sketch:type="MSShapeGroup"></path>
                <path d="M506.562012,29.202148 L508.071289,31.22168 L507.244141,31.22168 L505.498535,29.202148 L506.562012,29.202148 Z" id="Shape" sketch:type="MSShapeGroup"></path>
                <path d="M512.57373,29.980957 L516.79541,39.020508 L515.774902,39.020508 L511.547852,29.980957 L512.57373,29.980957 Z" id="Shape" sketch:type="MSShapeGroup"></path>
                <path d="M522.774902,29.980957 L523.79541,29.980957 L519.57373,39.020508 L518.547852,39.020508 L522.774902,29.980957 Z" id="Shape" sketch:type="MSShapeGroup"></path>
                <path d="M526.57373,29.980957 L530.79541,39.020508 L529.774902,39.020508 L525.547852,29.980957 L526.57373,29.980957 Z" id="Shape" sketch:type="MSShapeGroup"></path>
                <path d="M534.562012,29.202148 L536.071289,31.22168 L535.244141,31.22168 L533.498535,29.202148 L534.562012,29.202148 Z" id="Shape" sketch:type="MSShapeGroup"></path>
                <path d="M542.985352,29.631836 L542.985352,32.978027 L541.782227,32.978027 L541.782227,29.631836 L542.985352,29.631836 Z" id="Shape" sketch:type="MSShapeGroup"></path>
                <path d="M552.574219,39.020508 L552.574219,39.933594 L546,39.933594 L546,39.020508 L552.574219,39.020508 Z" id="Shape" sketch:type="MSShapeGroup"></path>
                <path d="M559.574219,39.020508 L559.574219,39.933594 L553,39.933594 L553,39.020508 L559.574219,39.020508 Z" id="Shape" sketch:type="MSShapeGroup"></path>
                <path d="M561.57373,29.980957 L565.79541,39.020508 L564.774902,39.020508 L560.547852,29.980957 L561.57373,29.980957 Z" id="Shape" sketch:type="MSShapeGroup"></path>
                <path d="M589.57373,29.980957 L593.79541,39.020508 L592.774902,39.020508 L588.547852,29.980957 L589.57373,29.980957 Z" id="Shape" sketch:type="MSShapeGroup"></path>
                <path d="M603.57373,29.980957 L607.79541,39.020508 L606.774902,39.020508 L602.547852,29.980957 L603.57373,29.980957 Z" id="Shape" sketch:type="MSShapeGroup"></path>
                <path d="M617.57373,29.980957 L621.79541,39.020508 L620.774902,39.020508 L616.547852,29.980957 L617.57373,29.980957 Z" id="Shape" sketch:type="MSShapeGroup"></path>
                <path d="M624.154785,29.980957 L625.245117,29.980957 L625.245117,37.086914 L629.117676,37.086914 L629.117676,38 L624.154785,38 L624.154785,29.980957 Z" id="Shape" sketch:type="MSShapeGroup"></path>
                <path d="M636.574219,39.020508 L636.574219,39.933594 L630,39.933594 L630,39.020508 L636.574219,39.020508 Z" id="Shape" sketch:type="MSShapeGroup"></path>
                <path d="M638.154785,29.980957 L639.245117,29.980957 L639.245117,37.086914 L643.117676,37.086914 L643.117676,38 L638.154785,38 L638.154785,29.980957 Z" id="Shape" sketch:type="MSShapeGroup"></path>
                <path d="M655.774902,29.980957 L656.79541,29.980957 L652.57373,39.020508 L651.547852,39.020508 L655.774902,29.980957 Z" id="Shape" sketch:type="MSShapeGroup"></path>
                <path d="M659.57373,29.980957 L663.79541,39.020508 L662.774902,39.020508 L658.547852,29.980957 L659.57373,29.980957 Z" id="Shape" sketch:type="MSShapeGroup"></path>
                <path d="M667.562012,29.202148 L669.071289,31.22168 L668.244141,31.22168 L666.498535,29.202148 L667.562012,29.202148 Z" id="Shape" sketch:type="MSShapeGroup"></path>
                <path d="M675.985352,29.631836 L675.985352,32.978027 L674.782227,32.978027 L674.782227,29.631836 L675.985352,29.631836 Z" id="Shape" sketch:type="MSShapeGroup"></path>
                <path d="M685.574219,39.020508 L685.574219,39.933594 L679,39.933594 L679,39.020508 L685.574219,39.020508 Z" id="Shape" sketch:type="MSShapeGroup"></path>
                <path d="M692.574219,39.020508 L692.574219,39.933594 L686,39.933594 L686,39.020508 L692.574219,39.020508 Z" id="Shape" sketch:type="MSShapeGroup"></path>
                <path d="M694.57373,29.980957 L698.79541,39.020508 L697.774902,39.020508 L693.547852,29.980957 L694.57373,29.980957 Z" id="Shape" sketch:type="MSShapeGroup"></path>
                <path d="M704.774902,29.980957 L705.79541,29.980957 L701.57373,39.020508 L700.547852,39.020508 L704.774902,29.980957 Z" id="Shape" sketch:type="MSShapeGroup"></path>
                <path d="M708.57373,29.980957 L712.79541,39.020508 L711.774902,39.020508 L707.547852,29.980957 L708.57373,29.980957 Z" id="Shape" sketch:type="MSShapeGroup"></path>
                <path d="M720.574219,39.020508 L720.574219,39.933594 L714,39.933594 L714,39.020508 L720.574219,39.020508 Z" id="Shape" sketch:type="MSShapeGroup"></path>
                <path d="M730.374023,36.061035 L732.049805,36.061035 L732.049805,37.484375 L730.857422,39.799316 L729.783203,39.804688 L730.374023,37.484375 L730.374023,36.061035 Z" id="Shape" sketch:type="MSShapeGroup"></path>
                <path d="M737.562012,29.202148 L739.071289,31.22168 L738.244141,31.22168 L736.498535,29.202148 L737.562012,29.202148 Z" id="Shape" sketch:type="MSShapeGroup"></path>
                <path d="M743.57373,29.980957 L747.79541,39.020508 L746.774902,39.020508 L742.547852,29.980957 L743.57373,29.980957 Z" id="Shape" sketch:type="MSShapeGroup"></path>
                <path d="M760.774902,29.980957 L761.79541,29.980957 L757.57373,39.020508 L756.547852,39.020508 L760.774902,29.980957 Z" id="Shape" sketch:type="MSShapeGroup"></path>
                <path d="M764.57373,29.980957 L768.79541,39.020508 L767.774902,39.020508 L763.547852,29.980957 L764.57373,29.980957 Z" id="Shape" sketch:type="MSShapeGroup"></path>
                <path d="M778.57373,29.980957 L782.79541,39.020508 L781.774902,39.020508 L777.547852,29.980957 L778.57373,29.980957 Z" id="Shape" sketch:type="MSShapeGroup"></path>
                <path d="M788.774902,29.980957 L789.79541,29.980957 L785.57373,39.020508 L784.547852,39.020508 L788.774902,29.980957 Z" id="Shape" sketch:type="MSShapeGroup"></path>
                <path d="M792.57373,29.980957 L796.79541,39.020508 L795.774902,39.020508 L791.547852,29.980957 L792.57373,29.980957 Z" id="Shape" sketch:type="MSShapeGroup"></path>
                <path d="M806.57373,29.980957 L810.79541,39.020508 L809.774902,39.020508 L805.547852,29.980957 L806.57373,29.980957 Z" id="Shape" sketch:type="MSShapeGroup"></path>
                <path d="M813.57373,29.980957 L817.79541,39.020508 L816.774902,39.020508 L812.547852,29.980957 L813.57373,29.980957 Z" id="Shape" sketch:type="MSShapeGroup"></path>
                <path d="M827.57373,29.980957 L831.79541,39.020508 L830.774902,39.020508 L826.547852,29.980957 L827.57373,29.980957 Z" id="Shape" sketch:type="MSShapeGroup"></path>
                <path d="M843.985352,29.631836 L843.985352,32.978027 L842.782227,32.978027 L842.782227,29.631836 L843.985352,29.631836 Z" id="Shape" sketch:type="MSShapeGroup"></path>
                <path d="M853.574219,39.020508 L853.574219,39.933594 L847,39.933594 L847,39.020508 L853.574219,39.020508 Z" id="Shape" sketch:type="MSShapeGroup"></path>
                <path d="M860.574219,39.020508 L860.574219,39.933594 L854,39.933594 L854,39.020508 L860.574219,39.020508 Z" id="Shape" sketch:type="MSShapeGroup"></path>
                <path d="M863.562012,29.202148 L865.071289,31.22168 L864.244141,31.22168 L862.498535,29.202148 L863.562012,29.202148 Z" id="Shape" sketch:type="MSShapeGroup"></path>
                <path d="M869.57373,29.980957 L873.79541,39.020508 L872.774902,39.020508 L868.547852,29.980957 L869.57373,29.980957 Z" id="Shape" sketch:type="MSShapeGroup"></path>
                <path d="M15.57373,16.980957 L19.79541,26.020508 L18.774902,26.020508 L14.547852,16.980957 L15.57373,16.980957 Z" id="Shape" sketch:type="MSShapeGroup"></path>
                <path d="M29.57373,16.980957 L33.79541,26.020508 L32.774902,26.020508 L28.547852,16.980957 L29.57373,16.980957 Z" id="Shape" sketch:type="MSShapeGroup"></path>
                <path d="M36.154785,16.980957 L37.245117,16.980957 L37.245117,24.086914 L41.117676,24.086914 L41.117676,25 L36.154785,25 L36.154785,16.980957 Z" id="Shape" sketch:type="MSShapeGroup"></path>
                <path d="M43.57373,16.980957 L47.79541,26.020508 L46.774902,26.020508 L42.547852,16.980957 L43.57373,16.980957 Z" id="Shape" sketch:type="MSShapeGroup"></path>
                <path d="M57.57373,16.980957 L61.79541,26.020508 L60.774902,26.020508 L56.547852,16.980957 L57.57373,16.980957 Z" id="Shape" sketch:type="MSShapeGroup"></path>
                <path d="M64.57373,16.980957 L68.79541,26.020508 L67.774902,26.020508 L63.547852,16.980957 L64.57373,16.980957 Z" id="Shape" sketch:type="MSShapeGroup"></path>
                <path d="M74.774902,16.980957 L75.79541,16.980957 L71.57373,26.020508 L70.547852,26.020508 L74.774902,16.980957 Z" id="Shape" sketch:type="MSShapeGroup"></path>
                <path d="M81.774902,16.980957 L82.79541,16.980957 L78.57373,26.020508 L77.547852,26.020508 L81.774902,16.980957 Z" id="Shape" sketch:type="MSShapeGroup"></path>
                <path d="M85.57373,16.980957 L89.79541,26.020508 L88.774902,26.020508 L84.547852,16.980957 L85.57373,16.980957 Z" id="Shape" sketch:type="MSShapeGroup"></path>
                <path d="M99.57373,16.980957 L103.79541,26.020508 L102.774902,26.020508 L98.547852,16.980957 L99.57373,16.980957 Z" id="Shape" sketch:type="MSShapeGroup"></path>
                <path d="M153.574219,26.020508 L153.574219,26.933594 L147,26.933594 L147,26.020508 L153.574219,26.020508 Z" id="Shape" sketch:type="MSShapeGroup"></path>
                <path d="M160.574219,26.020508 L160.574219,26.933594 L154,26.933594 L154,26.020508 L160.574219,26.020508 Z" id="Shape" sketch:type="MSShapeGroup"></path>
                <path d="M162.57373,16.980957 L166.79541,26.020508 L165.774902,26.020508 L161.547852,16.980957 L162.57373,16.980957 Z" id="Shape" sketch:type="MSShapeGroup"></path>
                <path d="M176.57373,16.980957 L180.79541,26.020508 L179.774902,26.020508 L175.547852,16.980957 L176.57373,16.980957 Z" id="Shape" sketch:type="MSShapeGroup"></path>
                <path d="M190.57373,16.980957 L194.79541,26.020508 L193.774902,26.020508 L189.547852,16.980957 L190.57373,16.980957 Z" id="Shape" sketch:type="MSShapeGroup"></path>
                <path d="M200.774902,16.980957 L201.79541,16.980957 L197.57373,26.020508 L196.547852,26.020508 L200.774902,16.980957 Z" id="Shape" sketch:type="MSShapeGroup"></path>
                <path d="M206.985352,16.631836 L206.985352,19.978027 L205.782227,19.978027 L205.782227,16.631836 L206.985352,16.631836 Z" id="Shape" sketch:type="MSShapeGroup"></path>
                <path d="M211.57373,16.980957 L215.79541,26.020508 L214.774902,26.020508 L210.547852,16.980957 L211.57373,16.980957 Z" id="Shape" sketch:type="MSShapeGroup"></path>
                <path d="M258.574219,26.020508 L258.574219,26.933594 L252,26.933594 L252,26.020508 L258.574219,26.020508 Z" id="Shape" sketch:type="MSShapeGroup"></path>
                <path d="M265.574219,26.020508 L265.574219,26.933594 L259,26.933594 L259,26.020508 L265.574219,26.020508 Z" id="Shape" sketch:type="MSShapeGroup"></path>
                <path d="M272.574219,26.020508 L272.574219,26.933594 L266,26.933594 L266,26.020508 L272.574219,26.020508 Z" id="Shape" sketch:type="MSShapeGroup"></path>
                <path d="M279.574219,26.020508 L279.574219,26.933594 L273,26.933594 L273,26.020508 L279.574219,26.020508 Z" id="Shape" sketch:type="MSShapeGroup"></path>
                <path d="M321.574219,26.020508 L321.574219,26.933594 L315,26.933594 L315,26.020508 L321.574219,26.020508 Z" id="Shape" sketch:type="MSShapeGroup"></path>
                <path d="M328.574219,26.020508 L328.574219,26.933594 L322,26.933594 L322,26.020508 L328.574219,26.020508 Z" id="Shape" sketch:type="MSShapeGroup"></path>
                <path d="M377.574219,26.020508 L377.574219,26.933594 L371,26.933594 L371,26.020508 L377.574219,26.020508 Z" id="Shape" sketch:type="MSShapeGroup"></path>
                <path d="M384.574219,26.020508 L384.574219,26.933594 L378,26.933594 L378,26.020508 L384.574219,26.020508 Z" id="Shape" sketch:type="MSShapeGroup"></path>
                <path d="M391.574219,26.020508 L391.574219,26.933594 L385,26.933594 L385,26.020508 L391.574219,26.020508 Z" id="Shape" sketch:type="MSShapeGroup"></path>
                <path d="M421.57373,16.980957 L425.79541,26.020508 L424.774902,26.020508 L420.547852,16.980957 L421.57373,16.980957 Z" id="Shape" sketch:type="MSShapeGroup"></path>
                <path d="M433.574219,26.020508 L433.574219,26.933594 L427,26.933594 L427,26.020508 L433.574219,26.020508 Z" id="Shape" sketch:type="MSShapeGroup"></path>
                <path d="M435.57373,16.980957 L439.79541,26.020508 L438.774902,26.020508 L434.547852,16.980957 L435.57373,16.980957 Z" id="Shape" sketch:type="MSShapeGroup"></path>
                <path d="M449.57373,16.980957 L453.79541,26.020508 L452.774902,26.020508 L448.547852,16.980957 L449.57373,16.980957 Z" id="Shape" sketch:type="MSShapeGroup"></path>
                <path d="M496.574219,26.020508 L496.574219,26.933594 L490,26.933594 L490,26.020508 L496.574219,26.020508 Z" id="Shape" sketch:type="MSShapeGroup"></path>
                <path d="M503.574219,26.020508 L503.574219,26.933594 L497,26.933594 L497,26.020508 L503.574219,26.020508 Z" id="Shape" sketch:type="MSShapeGroup"></path>
                <path d="M531.574219,26.020508 L531.574219,26.933594 L525,26.933594 L525,26.020508 L531.574219,26.020508 Z" id="Shape" sketch:type="MSShapeGroup"></path>
                <path d="M545.574219,26.020508 L545.574219,26.933594 L539,26.933594 L539,26.020508 L545.574219,26.020508 Z" id="Shape" sketch:type="MSShapeGroup"></path>
                <path d="M552.574219,26.020508 L552.574219,26.933594 L546,26.933594 L546,26.020508 L552.574219,26.020508 Z" id="Shape" sketch:type="MSShapeGroup"></path>
                <path d="M582.57373,16.980957 L586.79541,26.020508 L585.774902,26.020508 L581.547852,16.980957 L582.57373,16.980957 Z" id="Shape" sketch:type="MSShapeGroup"></path>
                <path d="M596.57373,16.980957 L600.79541,26.020508 L599.774902,26.020508 L595.547852,16.980957 L596.57373,16.980957 Z" id="Shape" sketch:type="MSShapeGroup"></path>
                <path d="M610.57373,16.980957 L614.79541,26.020508 L613.774902,26.020508 L609.547852,16.980957 L610.57373,16.980957 Z" id="Shape" sketch:type="MSShapeGroup"></path>
                <path d="M617.154785,16.980957 L618.245117,16.980957 L618.245117,24.086914 L622.117676,24.086914 L622.117676,25 L617.154785,25 L617.154785,16.980957 Z" id="Shape" sketch:type="MSShapeGroup"></path>
                <path d="M624.57373,16.980957 L628.79541,26.020508 L627.774902,26.020508 L623.547852,16.980957 L624.57373,16.980957 Z" id="Shape" sketch:type="MSShapeGroup"></path>
                <path d="M636.574219,26.020508 L636.574219,26.933594 L630,26.933594 L630,26.020508 L636.574219,26.020508 Z" id="Shape" sketch:type="MSShapeGroup"></path>
                <path d="M638.57373,16.980957 L642.79541,26.020508 L641.774902,26.020508 L637.547852,16.980957 L638.57373,16.980957 Z" id="Shape" sketch:type="MSShapeGroup"></path>
                <path d="M664.574219,26.020508 L664.574219,26.933594 L658,26.933594 L658,26.020508 L664.574219,26.020508 Z" id="Shape" sketch:type="MSShapeGroup"></path>
                <path d="M678.574219,26.020508 L678.574219,26.933594 L672,26.933594 L672,26.020508 L678.574219,26.020508 Z" id="Shape" sketch:type="MSShapeGroup"></path>
                <path d="M685.574219,26.020508 L685.574219,26.933594 L679,26.933594 L679,26.020508 L685.574219,26.020508 Z" id="Shape" sketch:type="MSShapeGroup"></path>
                <path d="M713.574219,26.020508 L713.574219,26.933594 L707,26.933594 L707,26.020508 L713.574219,26.020508 Z" id="Shape" sketch:type="MSShapeGroup"></path>
                <path d="M720.574219,26.020508 L720.574219,26.933594 L714,26.933594 L714,26.020508 L720.574219,26.020508 Z" id="Shape" sketch:type="MSShapeGroup"></path>
                <path d="M727.574219,26.020508 L727.574219,26.933594 L721,26.933594 L721,26.020508 L727.574219,26.020508 Z" id="Shape" sketch:type="MSShapeGroup"></path>
                <path d="M734.574219,26.020508 L734.574219,26.933594 L728,26.933594 L728,26.020508 L734.574219,26.020508 Z" id="Shape" sketch:type="MSShapeGroup"></path>
                <path d="M769.574219,26.020508 L769.574219,26.933594 L763,26.933594 L763,26.020508 L769.574219,26.020508 Z" id="Shape" sketch:type="MSShapeGroup"></path>
                <path d="M776.574219,26.020508 L776.574219,26.933594 L770,26.933594 L770,26.020508 L776.574219,26.020508 Z" id="Shape" sketch:type="MSShapeGroup"></path>
                <path d="M797.574219,26.020508 L797.574219,26.933594 L791,26.933594 L791,26.020508 L797.574219,26.020508 Z" id="Shape" sketch:type="MSShapeGroup"></path>
                <path d="M804.574219,26.020508 L804.574219,26.933594 L798,26.933594 L798,26.020508 L804.574219,26.020508 Z" id="Shape" sketch:type="MSShapeGroup"></path>
                <path d="M806.57373,16.980957 L810.79541,26.020508 L809.774902,26.020508 L805.547852,16.980957 L806.57373,16.980957 Z" id="Shape" sketch:type="MSShapeGroup"></path>
                <path d="M820.57373,16.980957 L824.79541,26.020508 L823.774902,26.020508 L819.547852,16.980957 L820.57373,16.980957 Z" id="Shape" sketch:type="MSShapeGroup"></path>
                <path d="M834.57373,16.980957 L838.79541,26.020508 L837.774902,26.020508 L833.547852,16.980957 L834.57373,16.980957 Z" id="Shape" sketch:type="MSShapeGroup"></path>
                <path d="M846.574219,26.020508 L846.574219,26.933594 L840,26.933594 L840,26.020508 L846.574219,26.020508 Z" id="Shape" sketch:type="MSShapeGroup"></path>
                <path d="M853.574219,26.020508 L853.574219,26.933594 L847,26.933594 L847,26.020508 L853.574219,26.020508 Z" id="Shape" sketch:type="MSShapeGroup"></path>
                <path d="M860.574219,26.020508 L860.574219,26.933594 L854,26.933594 L854,26.020508 L860.574219,26.020508 Z" id="Shape" sketch:type="MSShapeGroup"></path>
                <path d="M867.574219,26.020508 L867.574219,26.933594 L861,26.933594 L861,26.020508 L867.574219,26.020508 Z" id="Shape" sketch:type="MSShapeGroup"></path>
                <path d="M8.57373,3.980957 L12.79541,13.020508 L11.774902,13.020508 L7.547852,3.980957 L8.57373,3.980957 Z" id="Shape" sketch:type="MSShapeGroup"></path>
                <path d="M34.574219,13.020508 L34.574219,13.933594 L28,13.933594 L28,13.020508 L34.574219,13.020508 Z" id="Shape" sketch:type="MSShapeGroup"></path>
                <path d="M50.57373,3.980957 L54.79541,13.020508 L53.774902,13.020508 L49.547852,3.980957 L50.57373,3.980957 Z" id="Shape" sketch:type="MSShapeGroup"></path>
                <path d="M67.774902,3.980957 L68.79541,3.980957 L64.57373,13.020508 L63.547852,13.020508 L67.774902,3.980957 Z" id="Shape" sketch:type="MSShapeGroup"></path>
                <path d="M71.57373,3.980957 L75.79541,13.020508 L74.774902,13.020508 L70.547852,3.980957 L71.57373,3.980957 Z" id="Shape" sketch:type="MSShapeGroup"></path>
                <path d="M83.574219,13.020508 L83.574219,13.933594 L77,13.933594 L77,13.020508 L83.574219,13.020508 Z" id="Shape" sketch:type="MSShapeGroup"></path>
                <path d="M92.57373,3.980957 L96.79541,13.020508 L95.774902,13.020508 L91.547852,3.980957 L92.57373,3.980957 Z" id="Shape" sketch:type="MSShapeGroup"></path>
                <path d="M165.774902,3.980957 L166.79541,3.980957 L162.57373,13.020508 L161.547852,13.020508 L165.774902,3.980957 Z" id="Shape" sketch:type="MSShapeGroup"></path>
                <path d="M169.57373,3.980957 L173.79541,13.020508 L172.774902,13.020508 L168.547852,3.980957 L169.57373,3.980957 Z" id="Shape" sketch:type="MSShapeGroup"></path>
                <path d="M183.57373,3.980957 L187.79541,13.020508 L186.774902,13.020508 L182.547852,3.980957 L183.57373,3.980957 Z" id="Shape" sketch:type="MSShapeGroup"></path>
                <path d="M424.774902,3.980957 L425.79541,3.980957 L421.57373,13.020508 L420.547852,13.020508 L424.774902,3.980957 Z" id="Shape" sketch:type="MSShapeGroup"></path>
                <path d="M428.57373,3.980957 L432.79541,13.020508 L431.774902,13.020508 L427.547852,3.980957 L428.57373,3.980957 Z" id="Shape" sketch:type="MSShapeGroup"></path>
                <path d="M442.57373,3.980957 L446.79541,13.020508 L445.774902,13.020508 L441.547852,3.980957 L442.57373,3.980957 Z" id="Shape" sketch:type="MSShapeGroup"></path>
                <path d="M585.774902,3.980957 L586.79541,3.980957 L582.57373,13.020508 L581.547852,13.020508 L585.774902,3.980957 Z" id="Shape" sketch:type="MSShapeGroup"></path>
                <path d="M589.57373,3.980957 L593.79541,13.020508 L592.774902,13.020508 L588.547852,3.980957 L589.57373,3.980957 Z" id="Shape" sketch:type="MSShapeGroup"></path>
                <path d="M615.574219,13.020508 L615.574219,13.933594 L609,13.933594 L609,13.020508 L615.574219,13.020508 Z" id="Shape" sketch:type="MSShapeGroup"></path>
                <path d="M618.562012,3.202148 L620.071289,5.22168 L619.244141,5.22168 L617.498535,3.202148 L618.562012,3.202148 Z" id="Shape" sketch:type="MSShapeGroup"></path>
                <path d="M624.57373,3.980957 L628.79541,13.020508 L627.774902,13.020508 L623.547852,3.980957 L624.57373,3.980957 Z" id="Shape" sketch:type="MSShapeGroup"></path>
                <path d="M809.774902,3.980957 L810.79541,3.980957 L806.57373,13.020508 L805.547852,13.020508 L809.774902,3.980957 Z" id="Shape" sketch:type="MSShapeGroup"></path>
                <path d="M813.57373,3.980957 L817.79541,13.020508 L816.774902,13.020508 L812.547852,3.980957 L813.57373,3.980957 Z" id="Shape" sketch:type="MSShapeGroup"></path>
                <path d="M827.57373,3.980957 L831.79541,13.020508 L830.774902,13.020508 L826.547852,3.980957 L827.57373,3.980957 Z" id="Shape" sketch:type="MSShapeGroup"></path>
                <path d="M13.574219,0.020508 L13.574219,0.933594 L7,0.933594 L7,0.020508 L13.574219,0.020508 Z" id="Shape" sketch:type="MSShapeGroup"></path>
                <path d="M20.574219,0.020508 L20.574219,0.933594 L14,0.933594 L14,0.020508 L20.574219,0.020508 Z" id="Shape" sketch:type="MSShapeGroup"></path>
                <path d="M27.574219,0.020508 L27.574219,0.933594 L21,0.933594 L21,0.020508 L27.574219,0.020508 Z" id="Shape" sketch:type="MSShapeGroup"></path>
                <path d="M34.574219,0.020508 L34.574219,0.933594 L28,0.933594 L28,0.020508 L34.574219,0.020508 Z" id="Shape" sketch:type="MSShapeGroup"></path>
                <path d="M41.574219,0.020508 L41.574219,0.933594 L35,0.933594 L35,0.020508 L41.574219,0.020508 Z" id="Shape" sketch:type="MSShapeGroup"></path>
                <path d="M48.574219,0.020508 L48.574219,0.933594 L42,0.933594 L42,0.020508 L48.574219,0.020508 Z" id="Shape" sketch:type="MSShapeGroup"></path>
                <path d="M76.574219,0.020508 L76.574219,0.933594 L70,0.933594 L70,0.020508 L76.574219,0.020508 Z" id="Shape" sketch:type="MSShapeGroup"></path>
                <path d="M83.574219,0.020508 L83.574219,0.933594 L77,0.933594 L77,0.020508 L83.574219,0.020508 Z" id="Shape" sketch:type="MSShapeGroup"></path>
                <path d="M90.574219,0.020508 L90.574219,0.933594 L84,0.933594 L84,0.020508 L90.574219,0.020508 Z" id="Shape" sketch:type="MSShapeGroup"></path>
                <path d="M174.574219,0.020508 L174.574219,0.933594 L168,0.933594 L168,0.020508 L174.574219,0.020508 Z" id="Shape" sketch:type="MSShapeGroup"></path>
                <path d="M181.574219,0.020508 L181.574219,0.933594 L175,0.933594 L175,0.020508 L181.574219,0.020508 Z" id="Shape" sketch:type="MSShapeGroup"></path>
                <path d="M433.574219,0.020508 L433.574219,0.933594 L427,0.933594 L427,0.020508 L433.574219,0.020508 Z" id="Shape" sketch:type="MSShapeGroup"></path>
                <path d="M440.574219,0.020508 L440.574219,0.933594 L434,0.933594 L434,0.020508 L440.574219,0.020508 Z" id="Shape" sketch:type="MSShapeGroup"></path>
                <path d="M594.574219,0.020508 L594.574219,0.933594 L588,0.933594 L588,0.020508 L594.574219,0.020508 Z" id="Shape" sketch:type="MSShapeGroup"></path>
                <path d="M601.574219,0.020508 L601.574219,0.933594 L595,0.933594 L595,0.020508 L601.574219,0.020508 Z" id="Shape" sketch:type="MSShapeGroup"></path>
                <path d="M608.574219,0.020508 L608.574219,0.933594 L602,0.933594 L602,0.020508 L608.574219,0.020508 Z" id="Shape" sketch:type="MSShapeGroup"></path>
                <path d="M615.574219,0.020508 L615.574219,0.933594 L609,0.933594 L609,0.020508 L615.574219,0.020508 Z" id="Shape" sketch:type="MSShapeGroup"></path>
                <path d="M818.574219,0.020508 L818.574219,0.933594 L812,0.933594 L812,0.020508 L818.574219,0.020508 Z" id="Shape" sketch:type="MSShapeGroup"></path>
                <path d="M825.574219,0.020508 L825.574219,0.933594 L819,0.933594 L819,0.020508 L825.574219,0.020508 Z" id="Shape" sketch:type="MSShapeGroup"></path>
            </g>
        </g>
    </g>
</svg>